<mxfile host="app.diagrams.net" modified="2024-09-08T16:26:51.904Z" agent="Mozilla/5.0 (Windows NT 10.0; Win64; x64) AppleWebKit/537.36 (KHTML, like Gecko) Chrome/128.0.0.0 Safari/537.36 Edg/128.0.0.0" etag="VliY3jEtfDS2aonv_w4g" version="23.1.3" type="device">
  <diagram name="Pagina-1" id="jA2QoJcHPTC01E0-0Ikw">
    <mxGraphModel dx="1093" dy="396" grid="1" gridSize="10" guides="1" tooltips="1" connect="1" arrows="1" fold="1" page="1" pageScale="1" pageWidth="1654" pageHeight="2336" math="1" shadow="0">
      <root>
        <mxCell id="0" />
        <mxCell id="1" parent="0" />
        <mxCell id="Whx3uWwQ551sQIYhg3j0-2" value="&lt;font style=&quot;font-size: 18px;&quot;&gt;Server&lt;/font&gt;" style="text;html=1;align=center;verticalAlign=middle;whiteSpace=wrap;rounded=0;fontFamily=Times New Roman;" vertex="1" parent="1">
          <mxGeometry x="410" y="250" width="60" height="30" as="geometry" />
        </mxCell>
        <mxCell id="Whx3uWwQ551sQIYhg3j0-5" value="&lt;font style=&quot;font-size: 18px;&quot;&gt;Client&lt;/font&gt;" style="text;html=1;align=center;verticalAlign=middle;whiteSpace=wrap;rounded=0;fontFamily=Times New Roman;" vertex="1" parent="1">
          <mxGeometry x="850" y="250" width="60" height="30" as="geometry" />
        </mxCell>
        <mxCell id="Whx3uWwQ551sQIYhg3j0-6" value="" style="endArrow=none;html=1;rounded=0;dashed=1;exitX=0.5;exitY=0;exitDx=0;exitDy=0;" edge="1" parent="1" source="Whx3uWwQ551sQIYhg3j0-11">
          <mxGeometry width="50" height="50" relative="1" as="geometry">
            <mxPoint x="440" y="320" as="sourcePoint" />
            <mxPoint x="440" y="280" as="targetPoint" />
          </mxGeometry>
        </mxCell>
        <mxCell id="Whx3uWwQ551sQIYhg3j0-7" value="" style="endArrow=none;html=1;rounded=0;dashed=1;" edge="1" parent="1">
          <mxGeometry width="50" height="50" relative="1" as="geometry">
            <mxPoint x="879.8" y="320" as="sourcePoint" />
            <mxPoint x="879.8" y="280" as="targetPoint" />
          </mxGeometry>
        </mxCell>
        <mxCell id="Whx3uWwQ551sQIYhg3j0-8" value="" style="rounded=0;whiteSpace=wrap;html=1;" vertex="1" parent="1">
          <mxGeometry x="875" y="310" width="10" height="140" as="geometry" />
        </mxCell>
        <mxCell id="Whx3uWwQ551sQIYhg3j0-10" value="" style="endArrow=classic;html=1;rounded=0;entryX=1;entryY=0;entryDx=0;entryDy=0;" edge="1" parent="1" target="Whx3uWwQ551sQIYhg3j0-11">
          <mxGeometry width="50" height="50" relative="1" as="geometry">
            <mxPoint x="875" y="330" as="sourcePoint" />
            <mxPoint x="450" y="330" as="targetPoint" />
          </mxGeometry>
        </mxCell>
        <mxCell id="Whx3uWwQ551sQIYhg3j0-11" value="" style="rounded=0;whiteSpace=wrap;html=1;" vertex="1" parent="1">
          <mxGeometry x="435" y="330" width="10" height="90" as="geometry" />
        </mxCell>
        <mxCell id="Whx3uWwQ551sQIYhg3j0-13" value="&lt;font style=&quot;font-size: 12px;&quot;&gt;$$M1: \{authK\}_{pubK_S} \ \text{&amp;nbsp; &amp;nbsp; and&amp;nbsp; &amp;nbsp; } \ AE_{authK}(g^a\ mod\ p\ ||\ N_A, \ \ )$$&lt;/font&gt;" style="text;html=1;align=center;verticalAlign=middle;whiteSpace=wrap;rounded=0;fontFamily=Times New Roman;" vertex="1" parent="1">
          <mxGeometry x="440" y="300" width="440" height="30" as="geometry" />
        </mxCell>
        <mxCell id="Whx3uWwQ551sQIYhg3j0-16" value="" style="endArrow=open;html=1;rounded=0;entryX=1;entryY=0;entryDx=0;entryDy=0;endFill=0;dashed=1;" edge="1" parent="1">
          <mxGeometry width="50" height="50" relative="1" as="geometry">
            <mxPoint x="445" y="400" as="sourcePoint" />
            <mxPoint x="875" y="400" as="targetPoint" />
          </mxGeometry>
        </mxCell>
        <mxCell id="Whx3uWwQ551sQIYhg3j0-17" value="&lt;font style=&quot;font-size: 12px;&quot;&gt;$$M2: AE_{authK}(g^b\ mod\ p\ ||\ N_A, \ \ )$$&lt;/font&gt;" style="text;html=1;align=center;verticalAlign=middle;whiteSpace=wrap;rounded=0;fontFamily=Times New Roman;" vertex="1" parent="1">
          <mxGeometry x="440" y="370" width="440" height="30" as="geometry" />
        </mxCell>
        <mxCell id="Whx3uWwQ551sQIYhg3j0-18" value="" style="endArrow=none;html=1;rounded=0;dashed=1;" edge="1" parent="1">
          <mxGeometry width="50" height="50" relative="1" as="geometry">
            <mxPoint x="440" y="480" as="sourcePoint" />
            <mxPoint x="439.77" y="420" as="targetPoint" />
          </mxGeometry>
        </mxCell>
        <mxCell id="Whx3uWwQ551sQIYhg3j0-19" value="" style="endArrow=none;html=1;rounded=0;dashed=1;" edge="1" parent="1">
          <mxGeometry width="50" height="50" relative="1" as="geometry">
            <mxPoint x="880" y="480" as="sourcePoint" />
            <mxPoint x="879.53" y="450" as="targetPoint" />
          </mxGeometry>
        </mxCell>
      </root>
    </mxGraphModel>
  </diagram>
</mxfile>
